# xmcd
#
# Track frame offsets: 
#        150
#        12345
#        22756
#        32616
#        45382
#        56384
#        72209
#        83319
#        94667
#        106991
#        113046
#        127793
#        141516
#        152893
#        164615
#        174435
#        185198
#        199734
#        211682
#        224399
#
# Disc length: 3214 seconds
#
# Revision: 1
# Processed by: cddbd v1.5.2PL0 Copyright (c) Steve Scherf et al.
# Submitted via: ExactAudioCopyFreeDBPlugin 1.0
#
DISCID=040c8c14
DTITLE=Various Artist - Up Country - The Country Collection
DYEAR=2004
DGENRE=Country
TTITLE0=Johnny Cash - Folsom Prison Blues
TTITLE1=Boxcar Willie - Wabash Cannonball
TTITLE2=Freddy Fender - Wasted Days and Wasted Nights
TTITLE3=Charlie Rich - Behind Closed Doors
TTITLE4=Patsy Cline - A Stranger In My Arms
TTITLE5=Willie Nelson - Always On My Mind
TTITLE6=Hank Williams - Mind Your Own Business
TTITLE7=Kitty Wells - It Wasn't God Who Made Honky Tonk Angels
TTITLE8=Jimmie Rodgers - Waiting For A Train
TTITLE9=Jim Reeves - Have I Told You Lately That I Love You?
TTITLE10=Jeannie C. Riley - Harper Valley Pta
TTITLE11=Frankie Laine - Cool Water
TTITLE12=Tammy Wynette - D.I.V.O.R.C.E.
TTITLE13=Kenny Rogers - Me and Bobby McGee
TTITLE14=Bill Monroe - Blue Moon of Kentucky
TTITLE15=Tex Ritter - High Noon
TTITLE16=Red Foley - Old Shep
TTITLE17=Merle Haggard - Okie From Muskogee
TTITLE18=Faron Young - It's Four In The Morning
TTITLE19=The Carter Family - Will The Circle Be Unbroken?
EXTD=
EXTT0=
EXTT1=
EXTT2=
EXTT3=
EXTT4=
EXTT5=
EXTT6=
EXTT7=
EXTT8=
EXTT9=
EXTT10=
EXTT11=
EXTT12=
EXTT13=
EXTT14=
EXTT15=
EXTT16=
EXTT17=
EXTT18=
EXTT19=
PLAYORDER=
